<?xml version="1.0" standalone="no"?>
<!DOCTYPE svg PUBLIC "-//W3C//DTD SVG 20010904//EN"
 "http://www.w3.org/TR/2001/REC-SVG-20010904/DTD/svg10.dtd">
<svg version="1.0" xmlns="http://www.w3.org/2000/svg"
 width="192.000000pt" height="192.000000pt" viewBox="0 0 192.000000 192.000000"
 preserveAspectRatio="xMidYMid meet">
<metadata>
Created by potrace 1.14, written by Peter Selinger 2001-2017
</metadata>
<g transform="translate(0.000000,192.000000) scale(0.100000,-0.100000)"
fill="#000000" stroke="none">
<path d="M298 1839 c-6 -4 -16 -5 -20 -3 -4 3 -8 0 -8 -5 0 -6 -6 -11 -13 -11
-17 0 -77 -67 -77 -87 0 -8 -4 -11 -10 -8 -5 3 -7 0 -4 -8 3 -8 1 -17 -3 -20
-16 -10 0 -139 20 -164 28 -34 77 -84 77 -79 0 4 10 1 23 -6 12 -7 30 -12 39
-13 9 0 19 -3 23 -7 4 -4 13 -4 21 -1 9 3 14 -2 14 -16 0 -12 -4 -21 -10 -21
-5 0 -10 -6 -10 -14 0 -8 -31 -46 -69 -85 -37 -39 -66 -73 -63 -75 3 -3 -3 -8
-12 -12 -9 -3 -16 -12 -16 -20 0 -8 -4 -14 -8 -14 -17 0 -38 -64 -28 -86 18
-40 212 -111 356 -130 19 -3 47 -7 61 -9 35 -4 68 -26 75 -48 3 -9 8 -15 12
-13 4 2 8 -6 8 -17 1 -12 4 -33 8 -47 7 -30 17 -88 19 -112 1 -10 4 -18 8 -18
3 0 5 -13 4 -30 -1 -16 1 -30 5 -30 4 0 8 -12 9 -27 1 -16 3 -46 5 -68 2 -22
5 -46 5 -53 1 -16 35 -45 56 -48 9 -1 24 -6 33 -9 30 -13 252 -25 252 -14 0 3
14 4 30 3 17 -1 30 2 30 8 0 5 3 7 8 5 10 -6 43 31 33 38 -7 4 -8 40 -1 40 1
0 3 23 5 50 2 28 6 70 10 95 3 25 8 61 10 80 2 19 7 46 10 58 3 13 8 42 11 64
3 21 7 46 8 53 1 8 5 17 8 21 4 3 4 12 2 19 -8 21 20 24 58 5 20 -10 39 -15
42 -12 4 3 6 0 6 -7 0 -7 5 -9 10 -6 6 3 10 1 10 -4 0 -6 7 -11 15 -11 8 0 29
-8 47 -18 28 -16 128 -56 163 -66 63 -18 67 -18 82 -4 15 16 25 138 11 138 -4
0 -7 3 -6 8 3 12 -25 62 -34 62 -5 0 -6 5 -3 10 3 6 1 10 -5 10 -6 0 -8 5 -5
10 3 6 1 10 -6 10 -7 0 -10 3 -6 6 3 3 -3 15 -14 27 -10 11 -19 29 -19 38 0
10 -4 21 -10 24 -5 3 -10 15 -10 26 0 10 -5 19 -11 19 -6 0 -9 7 -5 15 3 8 0
15 -6 15 -6 0 -9 3 -5 6 8 9 -21 64 -33 64 -6 0 -9 3 -8 8 4 13 -27 52 -42 52
-8 0 -24 7 -34 15 -10 8 -23 12 -29 8 -6 -3 -7 -1 -3 5 4 7 1 12 -8 12 -9 0
-16 4 -16 9 0 10 -25 9 -36 -2 -3 -3 1 -13 10 -22 22 -22 20 -34 -4 -28 -11 3
-17 10 -13 17 4 6 -1 4 -12 -4 -10 -8 -21 -14 -24 -12 -3 1 -6 -3 -6 -10 0 -7
10 -15 22 -18 23 -5 73 -45 73 -57 -1 -19 -17 -32 -35 -28 -11 2 -20 4 -20 5
0 1 -12 3 -27 5 -16 2 -32 -3 -43 -14 -15 -17 -13 -19 28 -29 45 -12 110 -41
92 -42 -5 -1 8 -7 29 -15 22 -8 43 -12 48 -9 4 3 11 -3 15 -13 3 -10 12 -21
19 -26 7 -4 11 -16 9 -27 -2 -11 0 -20 6 -20 5 0 9 -9 9 -20 0 -11 -2 -20 -4
-20 -10 0 -89 46 -106 62 -11 10 -20 16 -20 13 0 -3 -15 5 -33 19 -19 15 -40
26 -48 26 -8 0 -19 4 -25 10 -20 20 -224 35 -224 16 -1 -6 -14 4 -30 23 l-29
34 34 36 c21 21 37 49 41 71 3 19 9 45 14 57 5 12 6 24 2 27 -8 5 -8 107 -1
122 13 24 -13 77 -61 125 -22 22 -40 37 -40 34 0 -4 -10 -1 -22 7 -37 23 -178
12 -178 -14 0 -5 -4 -7 -8 -4 -23 14 -97 -100 -85 -131 3 -7 1 -13 -4 -13 -13
0 -8 -109 6 -145 7 -16 18 -36 26 -45 46 -50 54 -60 63 -77 10 -17 15 -61 13
-93 -4 -45 -38 -55 -163 -48 -27 2 -48 1 -48 -3 0 -8 -98 -3 -145 8 -22 5 -50
8 -62 7 -28 -2 -29 6 -3 36 11 13 20 29 20 37 0 7 5 13 11 13 5 0 7 5 4 10 -3
6 -2 10 3 10 10 0 70 86 100 142 10 21 23 34 27 30 5 -4 6 0 3 9 -4 9 2 20 13
28 11 6 18 15 15 20 -3 4 4 24 14 44 11 21 18 37 15 37 -3 0 -1 9 5 20 8 15 8
20 -1 20 -6 0 -9 7 -5 15 3 8 -1 20 -8 27 -7 7 -11 19 -9 25 6 16 -26 83 -39
83 -5 0 -7 4 -3 9 7 12 -39 48 -85 67 -35 15 -129 17 -152 3z"/>
<path d="M655 580 c3 -5 8 -10 11 -10 2 0 4 5 4 10 0 6 -5 10 -11 10 -5 0 -7
-4 -4 -10z"/>
<path d="M1316 538 c3 -5 10 -6 15 -3 13 9 11 12 -6 12 -8 0 -12 -4 -9 -9z"/>
<path d="M1230 509 c0 -10 5 -19 10 -19 7 0 6 -8 -1 -22 -10 -20 -10 -21 2
-11 11 9 14 7 14 -13 0 -15 -6 -24 -15 -24 -13 0 -13 -2 -1 -9 12 -8 9 -11
-12 -17 -16 -3 -25 -9 -22 -12 7 -7 -66 -32 -77 -26 -4 3 -8 1 -8 -5 0 -6 -7
-8 -16 -4 -9 3 -20 0 -25 -8 -5 -8 -9 -9 -9 -3 0 13 -48 13 -67 1 -6 -4 -13
-1 -16 5 -3 10 -9 11 -26 1 -23 -15 -44 -18 -22 -4 9 6 1 9 -25 9 -52 1 -78 5
-85 15 -3 4 -11 2 -18 -6 -9 -12 -6 -18 15 -32 15 -9 23 -12 20 -6 -4 6 -2 11
3 11 6 0 11 -5 11 -11 0 -5 5 -7 11 -3 6 3 15 0 20 -7 7 -11 9 -10 9 4 0 10 5
15 10 12 6 -4 7 -12 3 -18 -5 -8 -2 -8 9 0 8 7 18 10 21 6 4 -3 14 0 24 8 9 8
14 9 10 3 -4 -7 0 -15 9 -18 10 -4 13 -2 8 6 -5 8 -2 9 9 5 9 -3 19 -2 23 4 4
7 10 7 18 0 13 -11 107 -11 100 0 -2 4 3 9 11 12 10 4 12 1 8 -11 -5 -14 -3
-14 9 1 8 11 26 20 40 20 18 2 24 6 20 17 -5 13 -4 13 13 0 11 -9 16 -10 11
-2 -4 6 -2 12 4 12 6 0 21 10 33 21 12 12 16 19 10 15 -9 -5 -11 -2 -7 8 3 9
12 12 22 8 12 -4 10 1 -6 18 -18 19 -19 26 -9 38 10 13 9 15 -11 10 -20 -6
-22 -4 -10 10 8 9 8 13 1 9 -6 -4 -13 -2 -15 5 -7 20 -38 18 -38 -3z"/>
<path d="M605 509 c4 -5 1 -16 -5 -24 -7 -8 -9 -15 -5 -15 4 0 2 -6 -4 -14 -9
-10 -6 -17 13 -31 14 -11 22 -24 18 -29 -3 -6 3 -4 13 4 10 8 16 10 12 4 -6
-11 28 -46 36 -37 3 3 12 1 19 -3 15 -10 20 -11 49 -13 11 0 18 -5 15 -9 -2
-4 4 -8 14 -8 11 0 17 2 15 5 -3 2 0 10 5 16 8 9 4 14 -15 19 -14 4 -31 4 -37
0 -7 -5 -8 -2 -3 6 6 10 3 12 -13 8 -12 -4 -22 -2 -22 4 0 5 -4 6 -10 3 -5 -3
-10 1 -10 9 0 9 -3 15 -7 15 -26 -4 -43 3 -44 19 0 15 -2 14 -10 -3 -8 -17 -9
-16 -6 7 2 15 0 25 -4 22 -12 -7 -11 3 1 26 7 13 6 19 -6 24 -9 3 -12 2 -9 -5z"/>
<path d="M1405 461 c-6 -11 13 -26 22 -17 4 3 1 6 -6 6 -7 0 -9 5 -6 10 3 6 4
10 1 10 -3 0 -7 -4 -11 -9z"/>
<path d="M475 437 c-12 -9 -14 -16 -7 -21 6 -4 8 -14 5 -23 -4 -10 -2 -14 4
-10 11 7 26 -19 18 -32 -2 -4 2 -8 10 -8 10 0 11 5 6 16 -5 9 -8 28 -6 44 2
17 -1 25 -8 20 -6 -4 -8 0 -4 10 8 20 6 21 -18 4z m24 -41 c-3 -3 -11 5 -18
17 -13 21 -12 21 5 5 10 -10 16 -20 13 -22z"/>
<path d="M1404 413 c3 -18 -61 -83 -81 -83 -7 0 -13 -4 -13 -9 0 -13 -79 -43
-92 -35 -7 4 -8 2 -4 -4 5 -8 -1 -12 -14 -12 -12 0 -19 -4 -16 -8 6 -10 -56
-8 -72 2 -6 3 -13 2 -16 -2 -3 -5 -18 -7 -33 -5 -16 2 -41 5 -58 6 -16 1 -33
7 -37 12 -5 6 -8 5 -8 -2 0 -7 -6 -10 -12 -8 -7 2 -32 6 -55 9 -23 2 -46 7
-52 10 -5 3 -12 0 -14 -6 -4 -9 -8 -9 -14 -3 -11 13 -36 18 -28 5 3 -5 1 -10
-4 -10 -6 0 -11 -5 -11 -10 0 -7 6 -7 20 0 15 8 20 8 20 -1 0 -6 6 -9 14 -6 7
3 18 1 24 -5 8 -8 13 -7 18 5 3 9 10 17 16 17 5 0 6 -4 3 -10 -3 -6 3 -10 14
-10 10 0 22 -6 24 -12 4 -10 6 -9 6 1 1 11 4 11 18 0 11 -10 14 -10 9 -1 -4 7
-1 12 9 12 9 0 14 -4 11 -8 -6 -11 34 -9 51 1 6 4 15 2 19 -4 5 -8 3 -9 -6 -4
-9 5 -11 4 -6 -4 6 -9 11 -9 22 0 10 8 14 8 14 0 0 -6 5 -11 11 -11 5 0 7 6 3
13 -4 6 2 4 13 -6 16 -14 23 -15 29 -6 4 8 3 10 -4 5 -7 -4 -12 -2 -12 3 0 16
11 13 32 -6 16 -14 18 -15 13 -1 -5 12 0 15 25 12 20 -3 33 1 36 11 4 8 10 15
16 15 5 0 6 -6 2 -12 -5 -9 -3 -9 9 1 9 7 14 18 10 25 -4 6 2 4 12 -4 17 -13
18 -13 13 1 -5 12 -1 15 18 13 13 -1 22 2 18 7 -3 5 3 12 13 16 10 4 25 15 35
25 12 14 17 16 21 6 5 -13 11 17 8 36 -1 5 5 4 13 -3 12 -10 14 -8 11 14 -2
18 2 25 11 21 8 -3 11 0 7 10 -7 20 -32 18 -29 -3z"/>
<path d="M516 394 c-3 -8 -1 -25 5 -37 9 -16 9 -22 0 -25 -6 -2 -8 -8 -5 -14
4 -6 9 -6 14 2 5 8 15 10 26 5 11 -5 22 -8 26 -7 4 1 4 -6 1 -16 -6 -15 -5
-15 10 -3 11 9 17 10 17 2 0 -6 4 -11 9 -11 5 0 7 9 4 20 -3 12 -11 19 -17 17
-6 -2 -24 2 -39 10 -22 11 -27 19 -23 36 3 12 3 16 0 9 -8 -17 -24 -5 -17 13
3 8 3 15 0 15 -3 0 -8 -7 -11 -16z"/>
<path d="M634 305 c2 -16 5 -32 5 -34 1 -3 6 0 13 7 14 14 32 16 24 4 -3 -5 7
-8 22 -7 15 1 36 -5 46 -14 11 -9 16 -11 13 -4 -4 6 -1 14 5 16 10 4 9 8 -2
16 -10 7 -17 6 -22 -2 -6 -9 -8 -9 -8 1 0 10 -5 10 -22 1 -22 -12 -22 -11 -8
6 14 17 13 18 -2 12 -11 -4 -22 0 -28 11 -11 16 -11 16 -6 0 3 -10 1 -18 -4
-18 -5 0 -14 8 -20 18 -8 14 -9 11 -6 -13z"/>
<path d="M550 310 c0 -5 5 -10 11 -10 5 0 7 5 4 10 -3 6 -8 10 -11 10 -2 0 -4
-4 -4 -10z"/>
<path d="M875 160 c3 -5 8 -10 11 -10 2 0 4 5 4 10 0 6 -5 10 -11 10 -5 0 -7
-4 -4 -10z"/>
</g>
</svg>
